<?xml version="1.0" encoding="UTF-8" standalone="no"?>
<!DOCTYPE svg PUBLIC "-//W3C//DTD SVG 1.1//EN" "http://www.w3.org/Graphics/SVG/1.1/DTD/svg11.dtd">
<svg width="100%" height="100%" viewBox="0 0 502 502" version="1.1" xmlns="http://www.w3.org/2000/svg" xmlns:xlink="http://www.w3.org/1999/xlink" xml:space="preserve" xmlns:serif="http://www.serif.com/" style="fill-rule:evenodd;clip-rule:evenodd;">
    <g transform="matrix(1,0,0,1,-1036.04,-3064.99)">
        <g transform="matrix(1,0,0,5.10832,0,0)">
            <g transform="matrix(5.53976e-17,-0.177105,-0.904711,-1.08446e-17,3408.21,846.349)">
                <circle cx="1113.87" cy="2344.92" r="277.101" style="fill:rgb(26,230,193);"/>
            </g>
        </g>
        <g transform="matrix(1,0,0,5.10832,0,0)">
            <g transform="matrix(3.04787e-17,-0.0974401,-2.54269,-3.04787e-17,3146.42,707.127)">
                <g transform="matrix(3.09379e-16,0.989082,-2.67159,3.20238e-17,10503.5,-5.79119)">
                    <path d="M745.312,3572.21L808.918,3699.42L681.706,3699.42L745.312,3572.21Z" style="fill:white;"/>
                </g>
                <g transform="matrix(3.73534e-17,0.119418,-1,1.19868e-17,4319.56,649.976)">
                    <path d="M262.051,3757.46L1101.36,3757.46" style="fill:none;stroke:white;stroke-width:63.06px;"/>
                </g>
                <g transform="matrix(3.28323e-17,0.104964,-1,1.19868e-17,4225.93,659.829)">
                    <path d="M262.051,3757.46L1101.36,3757.46" style="fill:none;stroke:white;stroke-width:65.1px;"/>
                </g>
                <g transform="matrix(2.98499e-17,0.0954297,-1,1.19868e-17,4132.3,666.329)">
                    <path d="M262.051,3757.46L1101.36,3757.46" style="fill:none;stroke:white;stroke-width:66.4px;"/>
                </g>
                <g transform="matrix(2.60016e-17,0.0831268,-1,1.19868e-17,4038.67,674.716)">
                    <path d="M262.051,3757.46L1101.36,3757.46" style="fill:none;stroke:white;stroke-width:67.99px;"/>
                </g>
            </g>
        </g>
    </g>
</svg>
