<?xml version="1.0" encoding="UTF-8" standalone="no"?><!DOCTYPE svg PUBLIC "-//W3C//DTD SVG 1.1//EN" "http://www.w3.org/Graphics/SVG/1.1/DTD/svg11.dtd"><svg width="100%" height="100%" viewBox="0 0 267 267" version="1.1" xmlns="http://www.w3.org/2000/svg" xmlns:xlink="http://www.w3.org/1999/xlink" xml:space="preserve" xmlns:serif="http://www.serif.com/" style="fill-rule:evenodd;clip-rule:evenodd;stroke-linejoin:round;stroke-miterlimit:2;"><path d="M133.333,33.714c73.589,0 133.334,13.601 133.334,99.619c0,86.219 -59.745,99.619 -133.334,99.619c-73.588,0 -133.333,-13.601 -133.333,-99.619c0,-86.018 59.745,-99.619 133.333,-99.619Zm-52.926,73.442l-10.226,0l0,52.355l10.226,0l0,-52.355Zm7.681,14.16c0,-4.458 1.675,-7.93 5.025,-10.383c3.348,-2.441 7.131,-3.777 11.391,-3.777l23.085,0l0,8.805l-20.545,0.011c-1.689,0 -3.118,0.195 -4.302,0.948c-1.169,0.765 -1.761,1.748 -1.761,2.975c0,1.057 0.49,2.053 1.458,3.012c0.968,0.923 3.797,2.272 8.489,3.997c4.533,1.687 7.983,3.217 10.41,4.565c2.425,1.372 4.329,3.121 5.732,5.296c1.4,2.173 2.121,4.676 2.121,7.53c0,5.038 -1.762,8.852 -5.284,11.402c-3.363,2.429 -7.318,3.705 -11.838,3.814l-23.981,0l0,-8.745l20.329,0c1.875,0 3.465,-0.546 4.749,-1.639c1.299,-1.08 1.935,-2.355 1.935,-3.838c0,-1.566 -0.62,-2.889 -1.878,-3.947c-1.285,-1.068 -3.58,-2.282 -6.929,-3.63c-7.074,-2.854 -11.882,-5.368 -14.409,-7.554c-2.512,-2.186 -3.797,-5.126 -3.797,-8.842Zm88.289,-5.37l22.925,0l0,-8.79l-24.686,0c-10.951,0 -19.831,8.958 -19.833,20.011l-0.004,12.321c-0.003,11.059 8.878,20.023 19.835,20.023l18.4,0c3.472,0 6.288,-2.841 6.288,-6.347l0,-15.817c0,-2.217 -1.782,-4.013 -3.978,-4.013l-8.086,0c-0.869,0 -1.52,0.952 -1.569,1.666c-0.075,1.105 1.056,2.713 1.118,4.966c0.008,2.354 0,8.786 0,8.786c0,1.113 -0.895,2.015 -1.996,2.015l-8.414,0c-4.923,0 -8.914,-4.028 -8.914,-8.996l0,-16.828c0,-4.968 3.991,-8.997 8.914,-8.997Zm-123.826,-8.79l-11.72,34.856l-10.207,-30.934c-0.774,-2.341 -2.946,-3.922 -5.391,-3.922l-8.642,0c-1.022,0 -1.661,1.114 -1.153,2.007l1.171,2.058c0.625,1.097 1.151,2.249 1.572,3.441l15.835,44.849l10.709,0l17.775,-52.355l-9.949,0Zm198.23,46.563l0,-46.563l-9.188,0l0,32.23l-17.314,-29.428c-1.021,-1.737 -2.882,-2.802 -4.893,-2.802l-11.662,0c-0.5,0 -0.868,0.493 -0.7,0.965c0.562,1.57 0.849,3.228 0.849,4.901l0,46.489l9.19,0l0,-38.608l20.588,35.775c1.019,1.754 2.889,2.833 4.912,2.833l8.113,0c0.487,0 0.825,-0.46 0.707,-0.932c-0.4,-1.588 -0.602,-3.221 -0.602,-4.86Zm-103.683,-46.563l-10.226,0l0,52.207l10.226,0l0,-52.207Z" style="fill:#f6881e;"/></svg>