<?xml version="1.0" encoding="UTF-8" standalone="no"?>
<!DOCTYPE svg PUBLIC "-//W3C//DTD SVG 1.1//EN" "http://www.w3.org/Graphics/SVG/1.1/DTD/svg11.dtd">
<svg width="100%" height="100%" viewBox="0 0 182 182" version="1.1" xmlns="http://www.w3.org/2000/svg" xmlns:xlink="http://www.w3.org/1999/xlink" xml:space="preserve" xmlns:serif="http://www.serif.com/" style="fill-rule:evenodd;clip-rule:evenodd;stroke-linecap:round;stroke-linejoin:round;">
    <g transform="matrix(1,0,0,1,-1345.21,-2497.31)">
        <g transform="matrix(1,0,0,5.10832,0,0)">
            <g transform="matrix(1,0,0,0.195759,240.105,0)">
                <path d="M1286.22,2506.37C1286.22,2501.37 1282.16,2497.31 1277.17,2497.31L1114.16,2497.31C1109.16,2497.31 1105.1,2501.37 1105.1,2506.37L1105.1,2669.37C1105.1,2674.37 1109.16,2678.43 1114.16,2678.43L1277.17,2678.43C1282.16,2678.43 1286.22,2674.37 1286.22,2669.37L1286.22,2506.37Z" style="fill:rgb(26,230,193);"/>
                <clipPath id="_clip1">
                    <path d="M1286.22,2506.37C1286.22,2501.37 1282.16,2497.31 1277.17,2497.31L1114.16,2497.31C1109.16,2497.31 1105.1,2501.37 1105.1,2506.37L1105.1,2669.37C1105.1,2674.37 1109.16,2678.43 1114.16,2678.43L1277.17,2678.43C1282.16,2678.43 1286.22,2674.37 1286.22,2669.37L1286.22,2506.37Z"/>
                </clipPath>
                <g clip-path="url(#_clip1)">
                    <g transform="matrix(1.0339,0,0,5.10832,-293.876,-8.54458)">
                        <g transform="matrix(1.19662,0,0,0.181228,-114.143,47.5739)">
                            <path d="M1272.2,2564.12L1212.49,2564.12" style="fill:none;stroke:white;stroke-width:3.66px;"/>
                        </g>
                        <g transform="matrix(1.19662,0,0,0.181228,-114.143,49.3849)">
                            <path d="M1272.2,2564.12L1212.49,2564.12" style="fill:none;stroke:white;stroke-width:3.66px;"/>
                        </g>
                        <g transform="matrix(1.19662,0,0,0.181228,-114.143,51.1959)">
                            <path d="M1272.2,2564.12L1212.49,2564.12" style="fill:none;stroke:white;stroke-width:3.66px;"/>
                        </g>
                    </g>
                    <g transform="matrix(1.0339,0,0,5.10832,-146.978,24.0966)">
                        <g transform="matrix(1.19662,0,0,0.181228,-114.143,47.5739)">
                            <path d="M1272.2,2564.12L1212.49,2564.12" style="fill:none;stroke:white;stroke-width:3.66px;"/>
                        </g>
                        <g transform="matrix(1.19662,0,0,0.181228,-114.143,49.3849)">
                            <path d="M1272.2,2564.12L1212.49,2564.12" style="fill:none;stroke:white;stroke-width:3.66px;"/>
                        </g>
                        <g transform="matrix(1.19662,0,0,0.181228,-114.143,51.1959)">
                            <path d="M1272.2,2564.12L1212.49,2564.12" style="fill:none;stroke:white;stroke-width:3.66px;"/>
                        </g>
                    </g>
                </g>
            </g>
        </g>
        <g transform="matrix(1,0,0,5.10832,0,0)">
            <g transform="matrix(79.5606,0,0,15.5747,1361.18,504.098)">
                <path d="M0.313,-0.698C0.386,-0.698 0.451,-0.684 0.506,-0.655C0.562,-0.626 0.605,-0.586 0.635,-0.533C0.666,-0.48 0.681,-0.418 0.681,-0.348C0.681,-0.278 0.666,-0.217 0.635,-0.165C0.605,-0.112 0.562,-0.072 0.506,-0.043C0.451,-0.014 0.386,-0 0.313,-0L0.069,-0L0.069,-0.698L0.313,-0.698ZM0.308,-0.119C0.381,-0.119 0.438,-0.139 0.478,-0.179C0.518,-0.219 0.538,-0.275 0.538,-0.348C0.538,-0.421 0.518,-0.477 0.478,-0.519C0.438,-0.56 0.381,-0.58 0.308,-0.58L0.209,-0.58L0.209,-0.119L0.308,-0.119Z" style="fill:white;fill-rule:nonzero;"/>
            </g>
        </g>
        <g transform="matrix(1,0,0,5.10832,0,0)">
            <g transform="matrix(79.5606,0,0,15.5747,1418.22,504.098)">
                <path d="M0.209,-0.585L0.209,-0.41L0.444,-0.41L0.444,-0.299L0.209,-0.299L0.209,-0.114L0.474,-0.114L0.474,-0L0.069,-0L0.069,-0.699L0.474,-0.699L0.474,-0.585L0.209,-0.585Z" style="fill:white;fill-rule:nonzero;"/>
            </g>
        </g>
        <g transform="matrix(1,0,0,5.10832,0,0)">
            <g transform="matrix(79.5606,0,0,15.5747,1460.55,504.098)">
                <path d="M0.31,0.007C0.261,0.007 0.218,-0.001 0.179,-0.018C0.14,-0.035 0.109,-0.059 0.086,-0.09C0.063,-0.121 0.052,-0.158 0.051,-0.201L0.201,-0.201C0.203,-0.172 0.213,-0.15 0.232,-0.133C0.25,-0.116 0.275,-0.108 0.307,-0.108C0.34,-0.108 0.365,-0.116 0.384,-0.132C0.403,-0.147 0.412,-0.168 0.412,-0.193C0.412,-0.214 0.406,-0.231 0.393,-0.244C0.38,-0.257 0.365,-0.268 0.345,-0.276C0.327,-0.283 0.3,-0.292 0.267,-0.301C0.222,-0.314 0.185,-0.328 0.157,-0.341C0.128,-0.354 0.104,-0.373 0.084,-0.4C0.063,-0.426 0.053,-0.461 0.053,-0.505C0.053,-0.546 0.063,-0.582 0.084,-0.613C0.105,-0.644 0.134,-0.667 0.171,-0.684C0.208,-0.7 0.251,-0.708 0.299,-0.708C0.371,-0.708 0.43,-0.691 0.474,-0.656C0.52,-0.621 0.544,-0.572 0.549,-0.509L0.395,-0.509C0.394,-0.533 0.384,-0.553 0.365,-0.569C0.345,-0.584 0.32,-0.592 0.289,-0.592C0.262,-0.592 0.24,-0.585 0.224,-0.571C0.207,-0.557 0.199,-0.537 0.199,-0.51C0.199,-0.491 0.205,-0.476 0.218,-0.464C0.23,-0.451 0.245,-0.441 0.264,-0.434C0.282,-0.426 0.308,-0.417 0.341,-0.407C0.386,-0.394 0.423,-0.38 0.452,-0.367C0.481,-0.354 0.505,-0.334 0.526,-0.307C0.547,-0.28 0.557,-0.245 0.557,-0.202C0.557,-0.165 0.547,-0.13 0.528,-0.098C0.509,-0.066 0.48,-0.041 0.443,-0.021C0.406,-0.003 0.361,0.007 0.31,0.007Z" style="fill:white;fill-rule:nonzero;"/>
            </g>
        </g>
        <g transform="matrix(1,0,0,5.10832,0,0)">
            <g transform="matrix(42.4768,0,0,8.31522,1420.78,512.403)">
                <rect x="0.069" y="-0.698" width="0.14" height="0.698" style="fill:white;fill-rule:nonzero;"/>
            </g>
        </g>
        <g transform="matrix(1,0,0,5.10832,0,0)">
            <g transform="matrix(42.4768,0,0,8.31522,1432.76,515.318)">
                <path d="M0.555,-0.488C0.539,-0.517 0.517,-0.54 0.489,-0.555C0.461,-0.57 0.428,-0.578 0.391,-0.578C0.35,-0.578 0.313,-0.569 0.281,-0.55C0.249,-0.531 0.224,-0.505 0.206,-0.47C0.188,-0.435 0.179,-0.395 0.179,-0.35C0.179,-0.303 0.188,-0.263 0.206,-0.228C0.225,-0.193 0.25,-0.167 0.283,-0.148C0.316,-0.129 0.354,-0.12 0.397,-0.12C0.45,-0.12 0.494,-0.134 0.528,-0.163C0.562,-0.191 0.584,-0.23 0.595,-0.281L0.355,-0.281L0.355,-0.388L0.733,-0.388L0.733,-0.266C0.724,-0.217 0.704,-0.172 0.673,-0.131C0.642,-0.09 0.603,-0.057 0.555,-0.032C0.506,-0.007 0.452,0.006 0.392,0.006C0.325,0.006 0.264,-0.009 0.21,-0.04C0.155,-0.07 0.113,-0.112 0.082,-0.166C0.051,-0.22 0.035,-0.281 0.035,-0.35C0.035,-0.419 0.051,-0.48 0.082,-0.535C0.113,-0.589 0.155,-0.631 0.21,-0.662C0.264,-0.692 0.324,-0.707 0.391,-0.707C0.47,-0.707 0.538,-0.688 0.596,-0.65C0.654,-0.611 0.694,-0.557 0.716,-0.488L0.555,-0.488Z" style="fill:white;fill-rule:nonzero;"/>
            </g>
        </g>
        <g transform="matrix(1,0,0,5.10832,0,0)">
            <g transform="matrix(42.4768,0,0,8.31522,1420.78,521.699)">
                <path d="M0.666,-0L0.526,-0L0.209,-0.479L0.209,-0L0.069,-0L0.069,-0.699L0.209,-0.699L0.526,-0.219L0.526,-0.699L0.666,-0.699L0.666,-0Z" style="fill:white;fill-rule:nonzero;"/>
            </g>
        </g>
    </g>
</svg>
