<?xml version="1.0" encoding="UTF-8" standalone="no"?><!DOCTYPE svg PUBLIC "-//W3C//DTD SVG 1.1//EN" "http://www.w3.org/Graphics/SVG/1.1/DTD/svg11.dtd"><svg width="100%" height="100%" viewBox="0 0 499 111" version="1.1" xmlns="http://www.w3.org/2000/svg" xmlns:xlink="http://www.w3.org/1999/xlink" xml:space="preserve" xmlns:serif="http://www.serif.com/" style="fill-rule:evenodd;clip-rule:evenodd;stroke-linejoin:round;stroke-miterlimit:2;"><path d="M153.888,29.92c0,-9.418 3.539,-16.755 10.618,-21.939c7.074,-5.158 15.068,-7.981 24.068,-7.981l48.78,0l0,18.605l-43.412,0.025c-3.569,0 -6.589,0.412 -9.09,2.002c-2.471,1.617 -3.723,3.694 -3.723,6.285c0,2.234 1.037,4.339 3.082,6.366c2.046,1.949 8.024,4.8 17.937,8.445c9.58,3.564 16.869,6.797 21.996,9.645c5.125,2.901 9.149,6.595 12.112,11.191c2.958,4.593 4.482,9.88 4.482,15.911c0,10.647 -3.722,18.705 -11.165,24.094c-7.106,5.132 -15.463,7.828 -25.013,8.058l-50.672,0l0,-18.477l42.955,0c3.962,0 7.321,-1.154 10.034,-3.465c2.746,-2.282 4.089,-4.975 4.089,-8.108c0,-3.31 -1.311,-6.106 -3.967,-8.34c-2.716,-2.257 -7.566,-4.823 -14.643,-7.671c-14.946,-6.031 -25.107,-11.343 -30.445,-15.961c-5.308,-4.621 -8.023,-10.832 -8.023,-18.685" style="fill:#ffad0a;"/><path d="M78.797,0l-24.765,73.652l-21.568,-65.364c-1.635,-4.948 -6.223,-8.288 -11.391,-8.288l-18.261,0c-2.159,0 -3.51,2.354 -2.435,4.241l2.474,4.349c1.321,2.319 2.432,4.753 3.321,7.271l33.46,94.766l22.629,0l37.558,-110.627l-21.022,0Z" style="fill:#ffad0a;"/><rect x="116.049" y="0" width="21.609" height="110.627" style="fill:#ffad0a;"/><rect x="256.968" y="0" width="21.609" height="110.315" style="fill:#ffad0a;"/><path d="M497.661,98.389l0,-98.389l-19.416,0l0,68.102l-36.584,-62.181c-2.156,-3.671 -6.089,-5.921 -10.338,-5.921l-24.643,0c-1.056,0 -1.835,1.042 -1.479,2.039c1.188,3.319 1.794,6.821 1.794,10.356l0,98.232l19.418,0l0,-81.579l43.504,75.594c2.152,3.706 6.105,5.985 10.379,5.985l17.143,0c1.029,0 1.743,-0.972 1.494,-1.969c-0.846,-3.356 -1.272,-6.807 -1.272,-10.269" style="fill:#ffad0a;"/><path d="M340.443,18.575l48.441,0l0,-18.575l-52.161,0c-23.141,0 -41.904,18.929 -41.909,42.284l-0.007,26.034c-0.008,23.367 18.758,42.309 41.911,42.309l38.879,0c7.336,0 13.287,-6.004 13.287,-13.41l0,-33.422c0,-4.686 -3.764,-8.48 -8.404,-8.48l-17.086,0c-1.838,0 -3.213,2.012 -3.316,3.519c-0.159,2.336 2.23,5.734 2.361,10.495c0.017,4.974 0,18.565 0,18.565c0,2.351 -1.89,4.258 -4.217,4.258l-17.779,0c-10.403,0 -18.835,-8.512 -18.835,-19.009l0,-35.559c0,-10.497 8.432,-19.009 18.835,-19.009" style="fill:#ffad0a;"/></svg>