<?xml version="1.0" encoding="UTF-8" standalone="no"?>
<svg
   xmlns:dc="http://purl.org/dc/elements/1.1/"
   xmlns:cc="http://creativecommons.org/ns#"
   xmlns:rdf="http://www.w3.org/1999/02/22-rdf-syntax-ns#"
   xmlns:svg="http://www.w3.org/2000/svg"
   xmlns="http://www.w3.org/2000/svg"
   xmlns:sodipodi="http://sodipodi.sourceforge.net/DTD/sodipodi-0.dtd"
   xmlns:inkscape="http://www.inkscape.org/namespaces/inkscape"
   id="Layer_1"
   enable-background="new 0 0 512 512"
   height="512"
   viewBox="0 0 512 512"
   width="512"
   version="1.1"
   sodipodi:docname="web-icon.svg"
   inkscape:version="1.0.1 (3bc2e813f5, 2020-09-07)">
  <metadata
     id="metadata184">
    <rdf:RDF>
      <cc:Work
         rdf:about="">
        <dc:format>image/svg+xml</dc:format>
        <dc:type
           rdf:resource="http://purl.org/dc/dcmitype/StillImage" />
        <dc:title></dc:title>
      </cc:Work>
    </rdf:RDF>
  </metadata>
  <defs
     id="defs182" />
  <sodipodi:namedview
     pagecolor="#ffffff"
     bordercolor="#666666"
     borderopacity="1"
     objecttolerance="10"
     gridtolerance="10"
     guidetolerance="10"
     inkscape:pageopacity="0"
     inkscape:pageshadow="2"
     inkscape:window-width="2560"
     inkscape:window-height="1384"
     id="namedview180"
     showgrid="false"
     inkscape:zoom="1.6386719"
     inkscape:cx="414.58187"
     inkscape:cy="224.26366"
     inkscape:window-x="0"
     inkscape:window-y="28"
     inkscape:window-maximized="1"
     inkscape:current-layer="g177"
     inkscape:document-rotation="0" />
  <g
     id="g177">
    <path
       d="M 481.081,512.35923 H 30.919 C 13.843,512.35923 0,498.55029 0,481.51629 V 74.720435 H 512 V 481.51629 c 0,17.034 -13.843,30.84294 -30.919,30.84294 z"
       fill="#a9dbf5"
       id="path149"
       sodipodi:nodetypes="sssccss"
       style="stroke-width:0.998769;fill:#ebf0f3;fill-opacity:1" />
    <path
       d="m 480.54799,74.19128 v 438.12321 c 17.47123,0 31.63328,-13.80882 31.63328,-30.84226 V 74.19128 Z"
       fill="#88c3e0"
       id="path151"
       sodipodi:nodetypes="ccscc"
       style="stroke-width:1.01025;fill:#f3f3f3;fill-opacity:1" />
    <g
       fill="#43809f"
       id="g159">
      <path
         d="m103.87 233.967c-2.929-2.928-7.678-2.928-10.606 0l-46.431 46.431c-2.929 2.93-2.929 7.678 0 10.607l45.816 45.816c1.464 1.464 3.384 2.196 5.303 2.196s3.839-.732 5.303-2.196c2.929-2.93 2.929-7.678 0-10.607l-40.513-40.513 41.127-41.127c2.93-2.929 2.93-7.678.001-10.607z"
         id="path153" />
      <path
         d="m264.52 280.397-46.431-46.431c-2.929-2.928-7.678-2.928-10.606 0-2.929 2.93-2.929 7.678 0 10.607l41.127 41.127-40.513 40.513c-2.929 2.93-2.929 7.678 0 10.607 1.464 1.464 3.384 2.196 5.303 2.196s3.839-.732 5.303-2.196l45.817-45.816c2.928-2.929 2.928-7.677 0-10.607z"
         id="path155" />
      <path
         d="m185.813 206.063c-3.874-1.471-8.203.477-9.673 4.351l-54.902 144.638c-1.47 3.872.478 8.203 4.35 9.673.876.333 1.775.49 2.66.49 3.025 0 5.876-1.844 7.013-4.841l54.902-144.638c1.47-3.872-.477-8.203-4.35-9.673z"
         id="path157" />
    </g>
    <path
       d="m 370.318,234.23 h -48.419 c -8.534,0 -15.453,-6.918 -15.453,-15.453 0,-8.534 6.918,-15.453 15.453,-15.453 h 48.419 c 8.534,0 15.453,6.918 15.453,15.453 0,8.534 -6.919,15.453 -15.453,15.453 z"
       fill="#29cef6"
       id="path161" />
    <path
       d="M 449.642,296.041 H 321.899 c -8.534,0 -15.453,-6.918 -15.453,-15.453 0,-8.534 6.918,-15.453 15.453,-15.453 h 127.742 c 8.534,0 15.453,6.918 15.453,15.453 0.001,8.534 -6.918,15.453 -15.452,15.453 z"
       fill="#ffc328"
       id="path163" />
    <path
       d="m 411.695,357.852 h -89.796 c -8.534,0 -15.453,-6.918 -15.453,-15.453 0,-8.534 6.918,-15.453 15.453,-15.453 h 89.796 c 8.534,0 15.453,6.918 15.453,15.453 0,8.534 -6.919,15.453 -15.453,15.453 z"
       fill="#f78e36"
       id="path165" />
    <path
       d="M 512.11395,74.591245 H 0.162882 v -43.38687 c 0,-17.103148 13.841677,-30.96815698 30.916046,-30.96815698 H 481.19791 c 17.07436,0 30.91604,13.86500898 30.91604,30.96815698 z"
       fill="#43809f"
       id="path167"
       style="stroke-width:1.00075" />
    <path
       d="M 481.095,-0.03454388 V 74.720435 H 512 V 31.11328 C 512,13.911085 498.163,-0.03454388 481.095,-0.03454388 Z"
       fill="#3a7190"
       id="path169"
       style="stroke-width:1.00348" />
    <circle
       cx="49.455002"
       cy="39.125999"
       fill="#29cef6"
       id="circle171"
       r="15.453" />
    <circle
       cx="109.37"
       cy="39.125999"
       fill="#f3f3f3"
       id="circle173"
       r="15.453" />
    <circle
       cx="169.285"
       cy="39.125999"
       fill="#f78e36"
       id="circle175"
       r="15.453" />
  </g>
</svg>
